P2
# This is a sample 4x4 image
4 4
255
255 0 255 1 
0 128 0 255 
255 0 95 0 
0 169 0 255 
